<svg width="90" height="18" viewBox="0 0 90 18" fill="none" xmlns="http://www.w3.org/2000/svg">
<path d="M5.41831 13.6603C4.47864 13.6603 3.66102 13.4895 2.96542 13.1478C2.28203 12.8061 1.75729 12.3302 1.39119 11.72C1.02508 11.0976 0.842034 10.3898 0.842034 9.59661H2.17831C2.17831 10.1336 2.30034 10.6278 2.54441 11.0793C2.78847 11.5308 3.14847 11.8969 3.62441 12.1776C4.10034 12.4461 4.69831 12.5803 5.41831 12.5803C6.05288 12.5803 6.58373 12.4766 7.01085 12.2691C7.45017 12.0495 7.78576 11.7627 8.01763 11.4088C8.24949 11.0549 8.36542 10.6522 8.36542 10.2007C8.36542 9.66372 8.24949 9.2305 8.01763 8.90101C7.79797 8.57152 7.49288 8.30305 7.10237 8.09559C6.71186 7.88813 6.26644 7.71118 5.7661 7.56474C5.27797 7.4061 4.75932 7.23525 4.21017 7.0522C3.22169 6.7105 2.49559 6.28949 2.03186 5.78915C1.56814 5.28881 1.33017 4.64813 1.31797 3.86711C1.31797 3.19593 1.47051 2.60406 1.77559 2.09152C2.09288 1.56678 2.55051 1.15796 3.14847 0.86508C3.74644 0.559996 4.45424 0.407454 5.27186 0.407454C6.06508 0.407454 6.75458 0.559996 7.34034 0.86508C7.93831 1.15796 8.40203 1.57288 8.73153 2.10983C9.06102 2.63457 9.22576 3.23864 9.22576 3.92203H7.9078C7.9078 3.53152 7.80407 3.15322 7.59661 2.78711C7.40136 2.40881 7.10237 2.10372 6.69966 1.87186C6.30915 1.62779 5.80881 1.50576 5.19864 1.50576C4.69831 1.50576 4.25288 1.59728 3.86237 1.78033C3.48407 1.95118 3.18508 2.20745 2.96542 2.54915C2.74576 2.87864 2.63593 3.26915 2.63593 3.72067C2.63593 4.16 2.73356 4.52 2.92881 4.80067C3.12407 5.08135 3.39864 5.31322 3.75254 5.49627C4.10644 5.67932 4.52136 5.85017 4.99729 6.00881C5.47322 6.15525 6.00407 6.3261 6.58983 6.52135C7.1878 6.72881 7.71864 6.97898 8.18237 7.27186C8.6461 7.56474 9.0122 7.94305 9.28068 8.40678C9.54915 8.8583 9.68339 9.43186 9.68339 10.1275C9.68339 10.7254 9.52475 11.299 9.20746 11.8481C8.90237 12.3851 8.43254 12.8244 7.79797 13.1661C7.16339 13.4956 6.37017 13.6603 5.41831 13.6603ZM11.8465 13.4407V0.261013H13.1279V5.86237C13.4452 5.27661 13.8845 4.81898 14.4459 4.48949C15.0072 4.16 15.6235 3.99525 16.2947 3.99525C16.9903 3.99525 17.5943 4.13559 18.1069 4.41627C18.6316 4.69694 19.0343 5.12406 19.315 5.69762C19.6079 6.27118 19.7543 7.00339 19.7543 7.89423V13.4407H18.4913V8.04067C18.4913 7.0522 18.2838 6.32 17.8689 5.84406C17.4662 5.35593 16.8682 5.11186 16.075 5.11186C15.5259 5.11186 15.0255 5.2461 14.574 5.51457C14.1347 5.78305 13.7808 6.17356 13.5123 6.6861C13.256 7.18644 13.1279 7.80881 13.1279 8.55322V13.4407H11.8465ZM26.2426 13.6603C25.4006 13.6603 24.6379 13.4651 23.9545 13.0746C23.2833 12.6719 22.7525 12.1105 22.3619 11.3905C21.9714 10.6583 21.7762 9.81017 21.7762 8.8461C21.7762 7.84542 21.9714 6.98508 22.3619 6.26508C22.7647 5.54508 23.3077 4.98983 23.9911 4.59932C24.6745 4.19661 25.4372 3.99525 26.2792 3.99525C27.1579 3.99525 27.9328 4.19661 28.604 4.59932C29.2752 4.98983 29.806 5.54508 30.1965 6.26508C30.587 6.98508 30.7823 7.84542 30.7823 8.8461C30.7823 9.81017 30.5809 10.6583 30.1782 11.3905C29.7877 12.1105 29.2508 12.6719 28.5674 13.0746C27.8962 13.4651 27.1213 13.6603 26.2426 13.6603ZM26.2609 12.562C26.8345 12.562 27.3592 12.4217 27.8352 12.141C28.3233 11.8603 28.7138 11.4454 29.0067 10.8963C29.3118 10.3349 29.4643 9.64542 29.4643 8.82779C29.4643 7.99796 29.3179 7.30847 29.025 6.75932C28.7321 6.21017 28.3416 5.80135 27.8535 5.53288C27.3775 5.2522 26.8528 5.11186 26.2792 5.11186C25.7301 5.11186 25.2114 5.2522 24.7233 5.53288C24.2352 5.81356 23.8386 6.22847 23.5335 6.77762C23.2406 7.31457 23.0942 7.99796 23.0942 8.82779C23.0942 9.64542 23.2406 10.3349 23.5335 10.8963C23.8264 11.4454 24.2108 11.8603 24.6867 12.141C25.1748 12.4217 25.6996 12.562 26.2609 12.562ZM32.976 17.4678V4.21491H34.1476L34.2574 5.88067C34.4526 5.55118 34.7089 5.2461 35.0262 4.96542C35.3435 4.67254 35.7218 4.44067 36.1611 4.26983C36.6126 4.08678 37.1252 3.99525 37.6987 3.99525C38.5896 3.99525 39.3645 4.20881 40.0235 4.63593C40.6947 5.06305 41.2133 5.64271 41.5794 6.37491C41.9455 7.09491 42.1286 7.91864 42.1286 8.8461C42.1286 9.77356 41.9394 10.6034 41.5611 11.3356C41.195 12.0556 40.6825 12.623 40.0235 13.038C39.3645 13.4529 38.5835 13.6603 37.6804 13.6603C36.8994 13.6603 36.2099 13.4956 35.612 13.1661C35.0262 12.8244 34.5747 12.3485 34.2574 11.7383V17.4678H32.976ZM37.5889 12.5437C38.2235 12.5437 38.7787 12.3912 39.2547 12.0861C39.7428 11.781 40.1272 11.3539 40.4079 10.8047C40.6886 10.2434 40.8289 9.5844 40.8289 8.82779C40.8289 8.08339 40.6886 7.4305 40.4079 6.86915C40.1272 6.30779 39.7428 5.87457 39.2547 5.56949C38.7787 5.2644 38.2235 5.11186 37.5889 5.11186C36.9543 5.11186 36.3869 5.2644 35.8865 5.56949C35.3984 5.87457 35.014 6.30779 34.7333 6.86915C34.4649 7.4183 34.3306 8.07118 34.3306 8.82779C34.3306 9.5722 34.4649 10.2251 34.7333 10.7864C35.014 11.3478 35.3984 11.781 35.8865 12.0861C36.3869 12.3912 36.9543 12.5437 37.5889 12.5437Z" fill="#4E4E4E"/>
<path d="M44.2907 13.4407V0.627114H47.2378L51.1551 8.62644L55.0358 0.627114H57.9829V13.4407H55.5117V4.83728L52.1253 11.6468H50.1667L46.7619 4.83728V13.4407H44.2907ZM63.5613 13.6603C62.7924 13.6603 62.1579 13.5383 61.6575 13.2942C61.1572 13.038 60.785 12.7024 60.5409 12.2875C60.3091 11.8603 60.1931 11.3905 60.1931 10.878C60.1931 10.3166 60.3335 9.82237 60.6141 9.39525C60.907 8.96813 61.3402 8.63254 61.9138 8.38847C62.4996 8.1444 63.2318 8.02237 64.1104 8.02237H66.3985C66.3985 7.57084 66.3375 7.19864 66.2155 6.90576C66.0935 6.60067 65.9043 6.37491 65.648 6.22847C65.3918 6.08203 65.0501 6.00881 64.623 6.00881C64.1592 6.00881 63.7626 6.11254 63.4331 6.32C63.1158 6.51525 62.9206 6.82033 62.8474 7.23525H60.4494C60.5104 6.57627 60.724 6.00881 61.0901 5.53288C61.4684 5.04474 61.9626 4.66644 62.5728 4.39796C63.1952 4.12949 63.8846 3.99525 64.6413 3.99525C65.5077 3.99525 66.2582 4.14169 66.8928 4.43457C67.5274 4.72745 68.0155 5.14847 68.3572 5.69762C68.6989 6.24678 68.8697 6.92406 68.8697 7.72949V13.4407H66.783L66.5084 12.0312C66.3741 12.2753 66.2155 12.4949 66.0324 12.6902C65.8494 12.8854 65.6358 13.0563 65.3918 13.2027C65.1477 13.3491 64.8731 13.459 64.568 13.5322C64.263 13.6176 63.9274 13.6603 63.5613 13.6603ZM64.147 11.7566C64.4643 11.7566 64.745 11.7017 64.9891 11.5919C65.2453 11.4698 65.465 11.3112 65.648 11.1159C65.8311 10.9085 65.9714 10.6766 66.0691 10.4203C66.1789 10.1519 66.2521 9.86508 66.2887 9.56V9.54169H64.4033C64.025 9.54169 63.7138 9.5905 63.4697 9.68813C63.2379 9.77356 63.067 9.90169 62.9572 10.0725C62.8474 10.2434 62.7924 10.4386 62.7924 10.6583C62.7924 10.9024 62.8474 11.1037 62.9572 11.2624C63.067 11.421 63.2257 11.543 63.4331 11.6285C63.6406 11.7139 63.8785 11.7566 64.147 11.7566ZM70.571 13.4407V11.4637L75.2205 6.26508H70.6259V4.21491H78.0577V6.21017L73.3716 11.3905H78.1493V13.4407H70.571ZM84.5786 13.6603C83.6512 13.6603 82.8275 13.4651 82.1075 13.0746C81.3997 12.6719 80.8444 12.1166 80.4417 11.4088C80.0512 10.6888 79.8559 9.85898 79.8559 8.91932C79.8559 7.95525 80.0512 7.10711 80.4417 6.37491C80.8444 5.6305 81.3997 5.05084 82.1075 4.63593C82.8153 4.20881 83.639 3.99525 84.5786 3.99525C85.4939 3.99525 86.2932 4.19661 86.9766 4.59932C87.66 5.00203 88.1908 5.54508 88.5691 6.22847C88.9475 6.91186 89.1366 7.68678 89.1366 8.55322C89.1366 8.67525 89.1366 8.81559 89.1366 8.97423C89.1366 9.12067 89.1244 9.27322 89.1 9.43186H81.6132V7.93084H86.6471C86.6105 7.33288 86.3969 6.86305 86.0064 6.52135C85.6281 6.17966 85.1522 6.00881 84.5786 6.00881C84.1637 6.00881 83.7793 6.10644 83.4254 6.30169C83.0715 6.48474 82.7908 6.77152 82.5834 7.16203C82.3881 7.55254 82.2905 8.04678 82.2905 8.64474V9.17559C82.2905 9.67593 82.382 10.1153 82.5651 10.4936C82.7603 10.8597 83.0288 11.1464 83.3705 11.3539C83.7122 11.5491 84.1088 11.6468 84.5603 11.6468C85.0119 11.6468 85.3841 11.5491 85.6769 11.3539C85.982 11.1586 86.2078 10.9085 86.3542 10.6034H88.8803C88.7095 11.1769 88.4227 11.6956 88.02 12.1593C87.6173 12.623 87.123 12.9891 86.5373 13.2576C85.9515 13.5261 85.2986 13.6603 84.5786 13.6603Z" fill="#0F766E"/>
</svg>
