<svg width="116" height="24" viewBox="0 0 116 24" fill="none" xmlns="http://www.w3.org/2000/svg">
<path d="M6.104 18.288C4.872 18.288 3.8 18.064 2.888 17.616C1.992 17.168 1.304 16.544 0.824 15.744C0.344 14.928 0.104 14 0.104 12.96H1.856C1.856 13.664 2.016 14.312 2.336 14.904C2.656 15.496 3.128 15.976 3.752 16.344C4.376 16.696 5.16 16.872 6.104 16.872C6.936 16.872 7.632 16.736 8.192 16.464C8.768 16.176 9.208 15.8 9.512 15.336C9.816 14.872 9.968 14.344 9.968 13.752C9.968 13.048 9.816 12.48 9.512 12.048C9.224 11.616 8.824 11.264 8.312 10.992C7.8 10.72 7.216 10.488 6.56 10.296C5.92 10.088 5.24 9.864 4.52 9.624C3.224 9.176 2.272 8.624 1.664 7.968C1.056 7.312 0.744 6.472 0.728 5.448C0.728 4.568 0.928 3.792 1.328 3.12C1.744 2.432 2.344 1.896 3.128 1.512C3.912 1.112 4.84 0.912 5.912 0.912C6.952 0.912 7.856 1.112 8.624 1.512C9.408 1.896 10.016 2.44 10.448 3.144C10.88 3.832 11.096 4.624 11.096 5.52H9.368C9.368 5.008 9.232 4.512 8.96 4.032C8.704 3.536 8.312 3.136 7.784 2.832C7.272 2.512 6.616 2.352 5.816 2.352C5.16 2.352 4.576 2.472 4.064 2.712C3.568 2.936 3.176 3.272 2.888 3.72C2.6 4.152 2.456 4.664 2.456 5.256C2.456 5.832 2.584 6.304 2.84 6.672C3.096 7.04 3.456 7.344 3.92 7.584C4.384 7.824 4.928 8.048 5.552 8.256C6.176 8.448 6.872 8.672 7.64 8.928C8.424 9.2 9.12 9.528 9.728 9.912C10.336 10.296 10.816 10.792 11.168 11.4C11.52 11.992 11.696 12.744 11.696 13.656C11.696 14.44 11.488 15.192 11.072 15.912C10.672 16.616 10.056 17.192 9.224 17.64C8.392 18.072 7.352 18.288 6.104 18.288ZM14.5321 18V0.719999H16.2121V8.064C16.6281 7.296 17.2041 6.696 17.9401 6.264C18.6761 5.832 19.4841 5.616 20.3641 5.616C21.2761 5.616 22.0681 5.8 22.7401 6.168C23.4281 6.536 23.9561 7.096 24.3241 7.848C24.7081 8.6 24.9001 9.56 24.9001 10.728V18H23.2441V10.92C23.2441 9.624 22.9721 8.664 22.4281 8.04C21.9001 7.4 21.1161 7.08 20.0761 7.08C19.3561 7.08 18.7001 7.256 18.1081 7.608C17.5321 7.96 17.0681 8.472 16.7161 9.144C16.3801 9.8 16.2121 10.616 16.2121 11.592V18H14.5321ZM33.407 18.288C32.303 18.288 31.303 18.032 30.407 17.52C29.527 16.992 28.831 16.256 28.319 15.312C27.807 14.352 27.551 13.24 27.551 11.976C27.551 10.664 27.807 9.536 28.319 8.592C28.847 7.648 29.559 6.92 30.455 6.408C31.351 5.88 32.351 5.616 33.455 5.616C34.607 5.616 35.623 5.88 36.503 6.408C37.383 6.92 38.079 7.648 38.591 8.592C39.103 9.536 39.359 10.664 39.359 11.976C39.359 13.24 39.095 14.352 38.567 15.312C38.055 16.256 37.351 16.992 36.455 17.52C35.575 18.032 34.559 18.288 33.407 18.288ZM33.431 16.848C34.183 16.848 34.871 16.664 35.495 16.296C36.135 15.928 36.647 15.384 37.031 14.664C37.431 13.928 37.631 13.024 37.631 11.952C37.631 10.864 37.439 9.96 37.055 9.24C36.671 8.52 36.159 7.984 35.519 7.632C34.895 7.264 34.207 7.08 33.455 7.08C32.735 7.08 32.055 7.264 31.415 7.632C30.775 8 30.255 8.544 29.855 9.264C29.471 9.968 29.279 10.864 29.279 11.952C29.279 13.024 29.471 13.928 29.855 14.664C30.239 15.384 30.743 15.928 31.367 16.296C32.007 16.664 32.695 16.848 33.431 16.848ZM42.2353 23.28V5.904H43.7713L43.9153 8.088C44.1713 7.656 44.5073 7.256 44.9233 6.888C45.3393 6.504 45.8353 6.2 46.4113 5.976C47.0033 5.736 47.6753 5.616 48.4273 5.616C49.5953 5.616 50.6113 5.896 51.4753 6.456C52.3553 7.016 53.0353 7.776 53.5153 8.736C53.9953 9.68 54.2353 10.76 54.2353 11.976C54.2353 13.192 53.9873 14.28 53.4913 15.24C53.0113 16.184 52.3393 16.928 51.4753 17.472C50.6113 18.016 49.5873 18.288 48.4033 18.288C47.3793 18.288 46.4753 18.072 45.6913 17.64C44.9233 17.192 44.3313 16.568 43.9153 15.768V23.28H42.2353ZM48.2833 16.824C49.1153 16.824 49.8433 16.624 50.4673 16.224C51.1073 15.824 51.6113 15.264 51.9793 14.544C52.3473 13.808 52.5312 12.944 52.5312 11.952C52.5312 10.976 52.3473 10.12 51.9793 9.384C51.6113 8.648 51.1073 8.08 50.4673 7.68C49.8433 7.28 49.1153 7.08 48.2833 7.08C47.4513 7.08 46.7073 7.28 46.0513 7.68C45.4113 8.08 44.9073 8.648 44.5393 9.384C44.1873 10.104 44.0113 10.96 44.0113 11.952C44.0113 12.928 44.1873 13.784 44.5393 14.52C44.9073 15.256 45.4113 15.824 46.0513 16.224C46.7073 16.624 47.4513 16.824 48.2833 16.824Z" fill="#4E4E4E"/>
<path d="M57.0701 18V1.2H60.9341L66.0701 11.688L71.1581 1.2H75.0221V18H71.7821V6.72L67.3421 15.648H64.7741L60.3101 6.72V18H57.0701ZM82.3359 18.288C81.3279 18.288 80.4959 18.128 79.8399 17.808C79.1839 17.472 78.6959 17.032 78.3759 16.488C78.0719 15.928 77.9199 15.312 77.9199 14.64C77.9199 13.904 78.1039 13.256 78.4719 12.696C78.8559 12.136 79.4239 11.696 80.1759 11.376C80.9439 11.056 81.9039 10.896 83.0559 10.896H86.0559C86.0559 10.304 85.9759 9.816 85.8159 9.432C85.6559 9.032 85.4079 8.736 85.0719 8.544C84.7359 8.352 84.2879 8.256 83.7279 8.256C83.1199 8.256 82.5999 8.392 82.1679 8.664C81.7519 8.92 81.4959 9.32 81.3999 9.864H78.2559C78.3359 9 78.6159 8.256 79.0959 7.632C79.5919 6.992 80.2399 6.496 81.0399 6.144C81.8559 5.792 82.7599 5.616 83.7519 5.616C84.8879 5.616 85.8719 5.808 86.7039 6.192C87.5359 6.576 88.1759 7.128 88.6239 7.848C89.0719 8.568 89.2959 9.456 89.2959 10.512V18H86.5599L86.1999 16.152C86.0239 16.472 85.8159 16.76 85.5759 17.016C85.3359 17.272 85.0559 17.496 84.7359 17.688C84.4159 17.88 84.0559 18.024 83.6559 18.12C83.2559 18.232 82.8159 18.288 82.3359 18.288ZM83.1039 15.792C83.5199 15.792 83.8879 15.72 84.2079 15.576C84.5439 15.416 84.8319 15.208 85.0719 14.952C85.3119 14.68 85.4959 14.376 85.6239 14.04C85.7679 13.688 85.8639 13.312 85.9119 12.912V12.888H83.4399C82.9439 12.888 82.5359 12.952 82.2159 13.08C81.9119 13.192 81.6879 13.36 81.5439 13.584C81.3999 13.808 81.3279 14.064 81.3279 14.352C81.3279 14.672 81.3999 14.936 81.5439 15.144C81.6879 15.352 81.8959 15.512 82.1679 15.624C82.4399 15.736 82.7519 15.792 83.1039 15.792ZM91.5264 18V15.408L97.6224 8.592H91.5984V5.904H101.342V8.52L95.1984 15.312H101.462V18H91.5264ZM109.892 18.288C108.676 18.288 107.596 18.032 106.652 17.52C105.724 16.992 104.996 16.264 104.468 15.336C103.956 14.392 103.7 13.304 103.7 12.072C103.7 10.808 103.956 9.696 104.468 8.736C104.996 7.76 105.724 7 106.652 6.456C107.58 5.896 108.66 5.616 109.892 5.616C111.092 5.616 112.14 5.88 113.036 6.408C113.932 6.936 114.628 7.648 115.124 8.544C115.62 9.44 115.868 10.456 115.868 11.592C115.868 11.752 115.868 11.936 115.868 12.144C115.868 12.336 115.852 12.536 115.82 12.744H106.004V10.776H112.604C112.556 9.992 112.276 9.376 111.764 8.928C111.268 8.48 110.644 8.256 109.892 8.256C109.348 8.256 108.844 8.384 108.38 8.64C107.916 8.88 107.548 9.256 107.276 9.768C107.02 10.28 106.892 10.928 106.892 11.712V12.408C106.892 13.064 107.012 13.64 107.252 14.136C107.508 14.616 107.86 14.992 108.308 15.264C108.756 15.52 109.276 15.648 109.868 15.648C110.46 15.648 110.948 15.52 111.332 15.264C111.732 15.008 112.028 14.68 112.22 14.28H115.532C115.308 15.032 114.932 15.712 114.404 16.32C113.876 16.928 113.228 17.408 112.46 17.76C111.692 18.112 110.836 18.288 109.892 18.288Z" fill="#0F766E"/>
</svg>
